HIERARCHY
ROOT Hips
{
	OFFSET 0.00000 0.00000 0.00000
	CHANNELS 6 Xposition Yposition Zposition Zrotation Yrotation Xrotation 
	JOINT LHipJoint
	{
		OFFSET 0 0 0
		CHANNELS 3 Zrotation Yrotation Xrotation
		JOINT LeftHip
		{
			OFFSET 1.40001 -1.72600 0.84541
			CHANNELS 3 Zrotation Yrotation Xrotation
			JOINT LeftKnee
			{
				OFFSET 2.34760 -6.44999 0.00000
				CHANNELS 3 Zrotation Yrotation Xrotation
				JOINT LeftAnkle
				{
					OFFSET 2.50650 -6.88655 0.00000
					CHANNELS 3 Zrotation Yrotation Xrotation
					JOINT LeftToe
					{
						OFFSET 0.12464 -0.34243 1.95563
						CHANNELS 3 Zrotation Yrotation Xrotation
						End Site
						{
							OFFSET 0.00000 -0.00000 1.00479
						}
					}
				}
			}
		}
	}
	JOINT RHipJoint
	{
		OFFSET 0 0 0
		CHANNELS 3 Zrotation Yrotation Xrotation
		JOINT RightHip
		{
			OFFSET -1.40958 -1.72600 0.84541
			CHANNELS 3 Zrotation Yrotation Xrotation
			JOINT RightKnee
			{
				OFFSET -2.37905 -6.53640 0.00000
				CHANNELS 3 Zrotation Yrotation Xrotation
				JOINT RightAnkle
				{
					OFFSET -2.50470 -6.88163 0.00000
					CHANNELS 3 Zrotation Yrotation Xrotation
					JOINT RightToe
					{
						OFFSET -0.12236 -0.33619 1.81785
						CHANNELS 3 Zrotation Yrotation Xrotation
						End Site
						{
							OFFSET -0.00000 -0.00000 0.93746
						}
					}
				}
			}
		}
	}
	JOINT lowerback
	{
		OFFSET 0 0 0
		CHANNELS 3 Zrotation Yrotation Xrotation
		JOINT Chest
		{
			OFFSET -0.02146 1.96915 0.26424
			CHANNELS 3 Zrotation Yrotation Xrotation
			JOINT Chest2
			{
				OFFSET 0.01522 1.99484 0.02086
				CHANNELS 3 Zrotation Yrotation Xrotation
				JOINT lowerneck
				{
					OFFSET 0 0 0
					CHANNELS 3 Zrotation Yrotation Xrotation
					JOINT Neck
					{
						OFFSET -0.02954 1.71757 0.03505
						CHANNELS 3 Zrotation Yrotation Xrotation
						JOINT Head
						{
							OFFSET 0.04170 1.65781 -0.11024
							CHANNELS 3 Zrotation Yrotation Xrotation
							End Site
							{
								OFFSET 0.01600 1.81465 -0.05144
							}
						}
					}
				}
				JOINT LeftCollar
				{
					OFFSET 0 0 0
					CHANNELS 3 Zrotation Yrotation Xrotation
					JOINT LeftShoulder
					{
						OFFSET 2.77679 1.60868 -0.78649
CHANNELS 3 Zrotation Xrotation Yrotation
						JOINT LeftElbow
						{
OFFSET 0 -4.626720 -0.000000
CHANNELS 3 Zrotation Xrotation Yrotation
							JOINT LeftWrist
							{
OFFSET 0 -3.110180 -0.000000
CHANNELS 3 Zrotation Xrotation Yrotation
								JOINT lhand
								{
									OFFSET 0 0 0
CHANNELS 3 Zrotation Xrotation Yrotation
									JOINT LFingers
									{
OFFSET 0 -0.743830 -0.000000
CHANNELS 3 Zrotation Xrotation Yrotation
										End Site
										{
OFFSET 0 -0.599700 -0.000000
										}
									}
								}
								JOINT LThumb
								{
OFFSET 0 0.000000 0.000000
CHANNELS 3 Zrotation Xrotation Yrotation
									End Site
									{
OFFSET 0 -0.608850 0.608850
									}
								}
							}
						}
					}
				}
				JOINT RightCollar
				{
					OFFSET 0 0 0
					CHANNELS 3 Zrotation Yrotation Xrotation
					JOINT RightShoulder
					{
						OFFSET -2.73247 1.63658 -0.74740
CHANNELS 3 Zrotation Xrotation Yrotation
						JOINT RightElbow
						{
OFFSET 0 -4.559190 -0.000000
CHANNELS 3 Zrotation Xrotation Yrotation
							JOINT RightWrist
							{
OFFSET 0 -3.227480 -0.000000
CHANNELS 3 Zrotation Xrotation Yrotation
								JOINT rhand
								{
									OFFSET 0 0 0
CHANNELS 3 Zrotation Xrotation Yrotation
									JOINT RFingers
									{
OFFSET 0 -0.700880 -0.000000
CHANNELS 3 Zrotation Xrotation Yrotation
										End Site
										{
OFFSET 0 -0.565070 -0.000000
										}
									}
								}
								JOINT RThumb
								{
OFFSET 0 0.000000 0.000000
CHANNELS 3 Zrotation Xrotation Yrotation
									End Site
									{
OFFSET 0 -0.573700 0.573700
									}
								}
							}
						}
					}
				}
			}
		}
	}
}
MOTION
Frames: 4
Frame Time: 0.008333333333333333
-0.709400 15.887000 -44.692700 -0.426500 3.529100 18.278800 0.000000 0.000000 0.000000 -18.759100 -3.653000 -6.224100 5.835000 14.266500 44.315800 0.129600 -13.104000 20.130800 2.587500 -9.995400 -28.961700 0.000000 0.000000 0.000000 14.842200 15.602300 -51.416800 -4.500000 -12.797500 38.615200 0.013600 7.747600 -5.130400 -0.678900 5.268300 -14.675300 3.729900 -2.616000 -16.390700 2.989300 -4.252200 -3.902100 0.194800 -2.061800 4.963800 1.685000 -0.558300 -5.466600 -4.841900 -0.612000 4.378500 -1.872700 -0.420100 2.324400 -0.000000 -0.000000 0.000000 8.750800 -9.191400 -25.595200 37.127100 -46.272700 16.331800 24.899600 -21.965100 16.110800 0.000000 0.000000 0.000000 -7.125000 0.000000 0.000000 -1.891100 12.323600 -1.444700 -0.000000 -0.000000 0.000000 -0.973300 20.209700 -58.479300 -6.035300 -10.321100 -0.545600 -19.172300 58.852100 32.756200 0.000000 0.000000 0.000000 7.125000 0.000000 -0.000000 16.262600 63.526700 -7.406300
-0.716939 15.902433 -44.531474 -0.677975 3.433019 18.157614 0.000000 0.000000 0.000000 -18.388999 -3.981496 -7.370246 6.422724 14.816602 46.638389 0.483201 -11.639385 21.999439 2.124021 -9.096248 -26.114114 0.000000 0.000000 0.000000 15.393013 15.692052 -50.779720 -4.561162 -12.871677 38.890215 -0.021319 7.542565 -5.739886 -0.684021 5.287786 -14.731128 3.866092 -2.497801 -15.656472 3.100814 -4.065514 -4.213741 0.315915 -1.986557 4.239956 1.655130 -0.624014 -5.578967 -4.914654 -0.677358 4.833659 -1.902285 -0.461278 2.494800 0.000000 0.000000 0.000000 8.438376 -8.333426 -25.806209 36.619171 -45.933038 15.966251 24.775356 -21.857995 15.945805 0.000000 0.000000 0.000000 -7.125000 0.000000 0.000000 -1.960725 12.519389 -1.489860 0.000000 0.000000 0.000000 -0.962632 20.227337 -56.768686 -6.168007 -10.542065 -0.569709 -18.794163 56.177545 33.840544 0.000000 0.000000 0.000000 7.125000 0.000000 0.000000 17.681059 64.452165 -8.466322
-0.721098 15.921371 -44.364758 -0.824533 3.530172 18.031740 0.000000 0.000000 0.000000 -18.057334 -4.352019 -8.426681 6.984851 15.310866 48.802505 0.853866 -9.263717 23.247743 1.297091 -6.807751 -19.305748 0.000000 0.000000 0.000000 15.895253 15.476978 -50.157888 -4.629251 -12.953456 39.194797 -0.057843 7.509858 -6.446052 -0.691126 5.314707 -14.808286 4.000383 -2.435946 -15.274164 3.134823 -3.975551 -4.371218 0.316654 -1.950551 3.861864 1.636622 -0.678365 -5.518163 -4.886546 -0.743265 5.023231 -1.894195 -0.494641 2.544022 0.000000 0.000000 0.000000 8.162783 -7.683216 -25.973249 35.825847 -45.386837 15.400413 24.598738 -21.512927 16.185103 0.000000 0.000000 0.000000 -7.125000 0.000000 0.000000 -2.097549 12.285374 -1.605261 0.000000 0.000000 0.000000 -0.876233 20.027876 -55.556723 -6.229376 -10.644218 -0.580894 -18.655763 54.458435 34.280984 0.000000 0.000000 0.000000 7.125000 0.000000 0.000000 18.239656 64.832224 -8.889789
-0.722800 15.942346 -44.194714 -0.872385 3.760954 17.916042 0.000000 0.000000 0.000000 -17.782415 -4.738470 -9.435902 7.530078 15.758936 50.845970 1.173482 -6.612227 23.853941 0.438144 -4.243978 -11.764554 0.000000 0.000000 0.000000 16.331465 15.036653 -49.556191 -4.699378 -13.037002 39.507148 -0.096640 7.606299 -7.227237 -0.707803 5.376440 -14.985545 4.100640 -2.416426 -15.183888 3.108662 -3.955612 -4.404285 0.242146 -1.942219 3.769651 1.635726 -0.716187 -5.339518 -4.781296 -0.799704 5.011576 -1.858753 -0.517173 2.504319 0.000000 0.000000 0.000000 7.899393 -7.198861 -26.087759 34.901384 -44.740260 14.744351 24.290147 -20.978043 16.508748 0.000000 0.000000 0.000000 -7.125000 0.000000 0.000000 -2.329499 11.977428 -1.795549 0.000000 0.000000 0.000000 -0.749336 19.628545 -55.059651 -6.217149 -10.623831 -0.578700 -18.681028 53.791157 34.086002 0.000000 0.000000 0.000000 7.125000 0.000000 0.000000 18.032494 64.654681 -8.716460
